<svg width="16" height="12" viewBox="0 0 16 12" fill="none" xmlns="http://www.w3.org/2000/svg">
<path d="M15.1768 9.17674L13.1768 11.1767C13.1299 11.2236 13.0663 11.25 13 11.25C12.9336 11.25 12.87 11.2236 12.8231 11.1767C12.7762 11.1298 12.7498 11.0662 12.7498 10.9999C12.7498 10.9335 12.7762 10.8699 12.8231 10.823L14.3962 9.24986H13C10.0831 9.24986 9.38497 7.57424 8.76934 6.09611C8.17809 4.67799 7.61934 3.33611 5.23497 3.25361C5.17107 3.82511 4.89078 4.35046 4.45165 4.72176C4.01251 5.09306 3.44788 5.28212 2.87371 5.25012C2.29953 5.21813 1.7594 4.9675 1.36425 4.5497C0.96909 4.13191 0.748901 3.57867 0.748901 3.00361C0.748901 2.42855 0.96909 1.87531 1.36425 1.45752C1.7594 1.03973 2.29953 0.789094 2.87371 0.757096C3.44788 0.725099 4.01251 0.914164 4.45165 1.28546C4.89078 1.65676 5.17107 2.18211 5.23497 2.75361C7.95309 2.84236 8.63059 4.46549 9.22934 5.90299C9.84059 7.36736 10.4168 8.74986 13 8.74986H14.3962L12.8231 7.17674C12.7762 7.12983 12.7498 7.0662 12.7498 6.99986C12.7498 6.93352 12.7762 6.8699 12.8231 6.82299C12.87 6.77608 12.9336 6.74972 13 6.74972C13.0663 6.74972 13.1299 6.77608 13.1768 6.82299L15.1768 8.82299C15.2001 8.8462 15.2185 8.87378 15.2311 8.90413C15.2437 8.93448 15.2502 8.96701 15.2502 8.99986C15.2502 9.03271 15.2437 9.06525 15.2311 9.0956C15.2185 9.12595 15.2001 9.15352 15.1768 9.17674ZM2.99997 1.24986C2.65385 1.24986 2.31551 1.3525 2.02772 1.54479C1.73994 1.73708 1.51563 2.01039 1.38318 2.33016C1.25073 2.64994 1.21607 3.0018 1.2836 3.34127C1.35112 3.68074 1.51779 3.99256 1.76253 4.2373C2.00727 4.48204 2.31909 4.64871 2.65856 4.71624C2.99803 4.78376 3.34989 4.7491 3.66967 4.61665C3.98944 4.4842 4.26275 4.25989 4.45504 3.97211C4.64733 3.68432 4.74997 3.34598 4.74997 2.99986C4.74997 2.53573 4.56559 2.09061 4.23741 1.76242C3.90922 1.43423 3.4641 1.24986 2.99997 1.24986Z" fill="black"/>
</svg>
